<svg xmlns="http://www.w3.org/2000/svg" version="1.1" xmlns:xlink="http://www.w3.org/1999/xlink" xmlns:svgjs="http://svgjs.dev/svgjs" width="1000" height="1000" viewBox="0 0 1000 1000"><rect width="1000" height="1000" fill="#000000"></rect><g transform="matrix(0.3968253968253968,0,0,0.3968253968253968,300.92426659984864,150.28341531419625)"><svg viewBox="0 0 140 247" data-background-color="#1f2d5a" preserveAspectRatio="xMidYMid meet" height="1764" width="1000" xmlns="http://www.w3.org/2000/svg" xmlns:xlink="http://www.w3.org/1999/xlink"><g id="tight-bounds" transform="matrix(1,0,0,1,0.23391906344897961,-0.09999999999999432)"><svg viewBox="0 0 139.53215739484395 247.2" height="247.2" width="139.53215739484395"><g><svg viewBox="0 0 139.53215739484395 247.2" height="247.2" width="139.53215739484395"><g><svg viewBox="0 0 139.53215739484395 247.2" height="247.2" width="139.53215739484395"><g id="textblocktransform"><svg viewBox="0 0 139.53215739484395 247.2" height="247.2" width="139.53215739484395" id="textblock"><g><svg viewBox="0 0 139.53215739484395 247.2" height="247.2" width="139.53215739484395"><g transform="matrix(1,0,0,1,0,0)"><svg width="139.53215739484395" viewBox="2.950000047683716 -36.54999923706055 20.799999237060547 36.849998474121094" height="247.2" data-palette-color="#fbfbfb"><path d="M13.3 0.3L13.3 0.3Q10.4 0.3 8.05-0.75 5.7-1.8 4.33-4.15 2.95-6.5 2.95-10.4L2.95-10.4 2.95-25.9Q2.95-29.75 4.33-32.1 5.7-34.45 8.03-35.5 10.35-36.55 13.3-36.55L13.3-36.55Q16.25-36.55 18.6-35.5 20.95-34.45 22.35-32.1 23.75-29.75 23.75-25.9L23.75-25.9 23.75-10.4Q23.75-6.5 22.35-4.15 20.95-1.8 18.6-0.75 16.25 0.3 13.3 0.3ZM13.3-2.75L13.3-2.75Q16.65-2.75 18.55-4.6 20.45-6.45 20.45-10.4L20.45-10.4 20.45-25.9Q20.45-29.8 18.55-31.65 16.65-33.5 13.3-33.5L13.3-33.5Q9.95-33.5 8.1-31.65 6.25-29.8 6.25-25.9L6.25-25.9 6.25-10.4Q6.25-6.45 8.1-4.6 9.95-2.75 13.3-2.75ZM13.35-16.25L13.35-16.25Q12.55-16.25 12.03-16.8 11.5-17.35 11.5-18.1L11.5-18.1Q11.5-18.9 12.03-19.4 12.55-19.9 13.35-19.9L13.35-19.9Q14.15-19.9 14.65-19.4 15.15-18.9 15.15-18.1L15.15-18.1Q15.15-17.35 14.65-16.8 14.15-16.25 13.35-16.25Z" opacity="1" transform="matrix(1,0,0,1,0,0)" fill="#ffffff" class="wordmark-text-0" data-fill-palette-color="primary" id="text-0"></path></svg></g></svg></g></svg></g></svg></g></svg></g><defs></defs></svg><rect width="139.53215739484395" height="247.2" fill="none" stroke="none" visibility="hidden"></rect></g></svg></g></svg>