<svg xmlns="http://www.w3.org/2000/svg" version="1.1" xmlns:xlink="http://www.w3.org/1999/xlink" xmlns:svgjs="http://svgjs.dev/svgjs" width="1000" height="272" viewBox="0 0 1000 272"><g transform="matrix(1,0,0,1,-0.6060380718531633,-0.43870712371429477)"><svg viewBox="0 0 396 108" data-background-color="#1b4571" preserveAspectRatio="xMidYMid meet" height="272" width="1000" xmlns="http://www.w3.org/2000/svg" xmlns:xlink="http://www.w3.org/1999/xlink"><g id="tight-bounds" transform="matrix(1,0,0,1,0.23999107645386175,0.17419456235825237)"><svg viewBox="0 0 395.52 107.65161290322581" height="107.65161290322581" width="395.52"><g><svg viewBox="0 0 395.52 107.65161290322581" height="107.65161290322581" width="395.52"><g><svg viewBox="0 0 395.52 107.65161290322581" height="107.65161290322581" width="395.52"><g id="textblocktransform"><svg viewBox="0 0 395.52 107.65161290322581" height="107.65161290322581" width="395.52" id="textblock"><g><svg viewBox="0 0 395.52 107.65161290322581" height="107.65161290322581" width="395.52"><g transform="matrix(1,0,0,1,0,0)"><svg width="395.52" viewBox="3.5 -40.04999923706055 148.7899932861328 40.5" height="107.65161290322581" data-palette-color="#ffffff"><g class="wordmark-text-0" data-fill-palette-color="primary" id="text-0"><path d="M11.6-39.7L16.85-39.7Q18.1-39.7 19.5-39.15 20.9-38.6 22.2-37.75L22.2-37.75 22.15-37.75Q23.45-36.8 24.15-35.27 24.85-33.75 24.85-31.75L24.85-31.75 24.85-8Q24.85-5.9 24.15-4.42 23.45-2.95 22.15-1.95L22.15-1.95Q20.85-1 19.5-0.48 18.15 0.05 16.85 0.05L16.85 0.05 11.6 0.05Q10.3 0.05 8.93-0.48 7.55-1 6.25-1.95L6.25-1.95Q4.95-2.95 4.23-4.42 3.5-5.9 3.5-8L3.5-8 3.5-31.75Q3.5-33.75 4.23-35.27 4.95-36.8 6.25-37.75L6.25-37.75 6.2-37.75Q7.5-38.6 8.9-39.15 10.3-39.7 11.6-39.7L11.6-39.7ZM12.8-5L15.55-5Q17.4-5 18.18-6.05 18.95-7.1 18.95-8.4L18.95-8.4 18.95-31.3Q18.95-32.55 18.18-33.6 17.4-34.65 15.55-34.65L15.55-34.65 12.8-34.65Q10.95-34.65 10.18-33.6 9.4-32.55 9.4-31.3L9.4-31.3 9.4-8.4Q9.4-7.1 10.18-6.05 10.95-5 12.8-5L12.8-5ZM44.05-24L52.8-38.8Q53.2-39.35 53.62-39.7 54.05-40.05 54.75-40.05L54.75-40.05Q55.45-40.05 56.35-39.6L56.35-39.6Q58.25-38.7 58.25-37.3L58.25-37.3Q58.25-36.95 58.17-36.58 58.1-36.2 57.9-35.95L57.9-35.95 57.9-36 48.25-19.6 57.65-3.7Q57.9-3.1 57.9-2.5L57.9-2.5Q57.9-1.05 56.3-0.2L56.3-0.2Q55.1 0.4 54.3 0.4L54.3 0.4Q53.3 0.4 52.5-0.75L52.5-0.75 43.9-15.3Q42.95-13.65 41.85-11.8 40.75-9.95 39.62-8.03 38.5-6.1 37.37-4.25 36.25-2.4 35.3-0.75L35.3-0.75Q34.9-0.2 34.5 0.1 34.1 0.4 33.5 0.4L33.5 0.4Q32.65 0.4 31.55-0.2L31.55-0.2Q29.85-1.15 29.85-2.5L29.85-2.5Q29.85-2.85 29.95-3.13 30.05-3.4 30.2-3.75L30.2-3.75 30.2-3.7Q32.5-7.65 34.92-11.7 37.35-15.75 39.7-19.75L39.7-19.75 30.15-36Q30-36.3 29.85-36.7 29.7-37.1 29.7-37.35L29.7-37.35Q29.7-38.7 31.7-39.6L31.7-39.6Q32.5-40.05 33.3-40.05L33.3-40.05Q33.95-40.05 34.4-39.7 34.85-39.35 35.25-38.8L35.25-38.8 44.05-24ZM85.69 0.05L66.25 0.05Q64.39 0.05 63.74-0.9 63.09-1.85 63.09-3L63.09-3 63.09-37.55Q63.09-39.95 66-39.95L66-39.95Q69-39.95 69-37.55L69-37.55 69-5 85.69-5Q87.5-5 87.5-2.55L87.5-2.55Q87.59 0.05 85.69 0.05L85.69 0.05ZM116.24-1.2L105.24-34.8 94.29-1.2 94.29-1.25Q93.99-0.5 93.47-0.03 92.94 0.45 92.19 0.45L92.19 0.45Q91.79 0.45 91.42 0.38 91.04 0.3 90.64 0.2L90.64 0.2 90.69 0.2Q87.84-0.7 88.59-3L88.59-3 99.99-37.65Q100.24-38.45 100.87-39 101.49-39.55 102.34-39.65L102.34-39.65Q103.19-39.8 103.99-39.88 104.79-39.95 105.24-39.95L105.24-39.95Q105.69-39.95 106.49-39.88 107.29-39.8 108.14-39.7L108.14-39.7Q108.84-39.6 109.52-38.95 110.19-38.3 110.54-37.65L110.54-37.65Q113.34-29.05 116.22-20.33 119.09-11.6 121.89-3L121.89-3Q122.59-0.7 119.79 0.2L119.79 0.2Q119.39 0.3 119.07 0.38 118.74 0.45 118.34 0.45L118.34 0.45Q117.64 0.45 117.07-0.03 116.49-0.5 116.24-1.25L116.24-1.25 116.24-1.2ZM108.99-12L108.99-12Q108.99-10.4 107.87-9.28 106.74-8.15 105.14-8.15L105.14-8.15Q103.54-8.15 102.44-9.28 101.34-10.4 101.34-12L101.34-12Q101.34-13.6 102.44-14.73 103.54-15.85 105.14-15.85L105.14-15.85Q106.74-15.85 107.87-14.73 108.99-13.6 108.99-12ZM138.09-24L146.84-38.8Q147.24-39.35 147.67-39.7 148.09-40.05 148.79-40.05L148.79-40.05Q149.49-40.05 150.39-39.6L150.39-39.6Q152.29-38.7 152.29-37.3L152.29-37.3Q152.29-36.95 152.22-36.58 152.14-36.2 151.94-35.95L151.94-35.95 151.94-36 142.29-19.6 151.69-3.7Q151.94-3.1 151.94-2.5L151.94-2.5Q151.94-1.05 150.34-0.2L150.34-0.2Q149.14 0.4 148.34 0.4L148.34 0.4Q147.34 0.4 146.54-0.75L146.54-0.75 137.94-15.3Q136.99-13.65 135.89-11.8 134.79-9.95 133.67-8.03 132.54-6.1 131.42-4.25 130.29-2.4 129.34-0.75L129.34-0.75Q128.94-0.2 128.54 0.1 128.14 0.4 127.54 0.4L127.54 0.4Q126.69 0.4 125.59-0.2L125.59-0.2Q123.89-1.15 123.89-2.5L123.89-2.5Q123.89-2.85 123.99-3.13 124.09-3.4 124.24-3.75L124.24-3.75 124.24-3.7Q126.54-7.65 128.97-11.7 131.39-15.75 133.74-19.75L133.74-19.75 124.19-36Q124.04-36.3 123.89-36.7 123.74-37.1 123.74-37.35L123.74-37.35Q123.74-38.7 125.74-39.6L125.74-39.6Q126.54-40.05 127.34-40.05L127.34-40.05Q127.99-40.05 128.44-39.7 128.89-39.35 129.29-38.8L129.29-38.8 138.09-24Z" fill="#ffffff" data-fill-palette-color="primary"></path></g></svg></g></svg></g></svg></g></svg></g></svg></g><defs></defs></svg><rect width="395.52" height="107.65161290322581" fill="none" stroke="none" visibility="hidden"></rect></g></svg></g></svg>